<svg width="32" height="32" viewBox="0 0 32 32" fill="none" xmlns="http://www.w3.org/2000/svg">
<path fill-rule="evenodd" clip-rule="evenodd" d="M15.71 4.03009C9.76 4.44009 5.01 9.38009 4.82 15.3401C4.74 17.7501 5.39 20.0801 6.69 22.0801L3.75 28.0001C3.84 28.0001 11.02 26.0601 11.02 26.0601C12.71 26.9701 14.61 27.4401 16.54 27.4401C23 27.4401 28.26 22.1801 28.26 15.7201C28.26 9.26009 22.55 3.56009 15.71 4.03009ZM16.53 25.4001C14.82 25.4001 13.13 24.9401 11.66 24.0801C11.5 23.9901 11.29 23.8401 11.29 23.8401C11.29 23.8401 10.96 23.9501 10.87 23.9701L7.66 24.8501L9.03 21.8301C7.48 19.9201 6.72 17.5601 6.87 15.1001C7.16 10.3001 11.04 6.39009 15.84 6.06009C21.48 5.67009 26.2 10.1501 26.2 15.7101C26.2 21.2701 21.86 25.3901 16.52 25.3901L16.53 25.4001Z" fill="#F5F5F5"/>
<path fill-rule="evenodd" clip-rule="evenodd" d="M21.0399 17.4804C20.5499 17.1904 19.9099 16.8604 19.3299 17.1004C18.8899 17.2804 18.5999 17.9804 18.3199 18.3304C18.1699 18.5104 17.9999 18.5404 17.7699 18.4504C16.0999 17.7904 14.8299 16.6704 13.9099 15.1404C13.7499 14.9004 13.7799 14.7104 13.9699 14.4904C14.2499 14.1604 14.5999 13.7904 14.6699 13.3504C14.7499 12.9104 14.5399 12.3904 14.3599 12.0004C14.1299 11.5004 13.8699 10.7804 13.3699 10.5004C12.9099 10.2404 12.2999 10.3904 11.8899 10.7204C11.1799 11.3004 10.8399 12.2004 10.8499 13.1004C10.8499 13.3604 10.8799 13.6104 10.9399 13.8604C11.4399 15.9104 12.8499 17.6404 14.4999 18.8904C15.9199 19.9704 18.2699 21.4304 20.1399 21.0804C21.0499 20.9104 21.9399 20.3504 22.2999 19.4704C22.4099 19.2104 22.4599 18.9204 22.3999 18.6504C22.2799 18.0904 21.5099 17.7504 21.0499 17.4804H21.0399Z" fill="#F5F5F5"/>
</svg>
